<?xml version="1.0" encoding="UTF-8" standalone="no"?>
<!-- Generator: Adobe Illustrator 14.0.0, SVG Export Plug-In . SVG Version: 6.00 Build 43363)  -->

<svg
   xmlns:dc="http://purl.org/dc/elements/1.1/"
   xmlns:cc="http://creativecommons.org/ns#"
   xmlns:rdf="http://www.w3.org/1999/02/22-rdf-syntax-ns#"
   xmlns:svg="http://www.w3.org/2000/svg"
   xmlns="http://www.w3.org/2000/svg"
   xmlns:xlink="http://www.w3.org/1999/xlink"
   xmlns:sodipodi="http://sodipodi.sourceforge.net/DTD/sodipodi-0.dtd"
   xmlns:inkscape="http://www.inkscape.org/namespaces/inkscape"
   id="Layer_1"
   xml:space="preserve"
   viewBox="0 0 123.95353 156.24704"
   version="1.0"
   inkscape:version="0.92.1 r"
   sodipodi:docname="theosrecipeslogo.svg"
   width="132.2171"
   height="166.66351"><defs
     id="defs9"><linearGradient
       id="linearGradient4533"><stop
         offset="0"
         stop-color="#fff"
         id="stop4535" /><stop
         offset="1"
         stop-opacity="0"
         stop-color="#fff"
         id="stop4537" /></linearGradient><linearGradient
       id="linearGradient2917"><stop
         offset="0"
         stop-color="#37c837"
         id="stop2919" /><stop
         offset="1"
         stop-color="#abc837"
         id="stop2921" /></linearGradient><linearGradient
       y2="985.21997"
       x2="537.14001"
       gradientTransform="matrix(0.40869,-0.10292,0.2442,0.96972,153.03,-28.075)"
       y1="232.36"
       gradientUnits="userSpaceOnUse"
       xlink:href="#linearGradient4533"
       x1="300"
       id="linearGradient4656" /><linearGradient
       y2="114.68"
       x2="428.12"
       gradientTransform="matrix(1.0073,0,0,0.56967,112.52,17.027)"
       y1="44.23"
       gradientUnits="userSpaceOnUse"
       xlink:href="#linearGradient2917"
       x1="230.31"
       id="linearGradient4659" /><linearGradient
       y2="105.37"
       x2="439.26001"
       gradientTransform="matrix(0.99245,-0.12267,0.12267,0.99245,94.405,17.522)"
       y1="11.188"
       gradientUnits="userSpaceOnUse"
       xlink:href="#linearGradient2917"
       x1="251.59"
       id="linearGradient4662" /><linearGradient
       y2="530.44"
       x2="789.84998"
       gradientTransform="translate(-178.8,-47.477)"
       y1="530.44"
       gradientUnits="userSpaceOnUse"
       x1="521.08002"
       id="linearGradient4682"><stop
         offset="0"
         stop-color="#cf0"
         id="stop4678" /><stop
         offset="1"
         stop-color="#ffb380"
         id="stop4680" /></linearGradient><linearGradient
       y2="985.21997"
       x2="537.14001"
       gradientTransform="matrix(0.40869,-0.10292,0.2442,0.96972,-139.91,-28.075)"
       y1="232.36"
       gradientUnits="userSpaceOnUse"
       xlink:href="#linearGradient4533"
       x1="300"
       id="linearGradient4699" /><linearGradient
       y2="114.68"
       x2="428.12"
       gradientTransform="matrix(1.0073,0,0,0.56967,-180.42,17.027)"
       y1="44.23"
       gradientUnits="userSpaceOnUse"
       xlink:href="#linearGradient2917"
       x1="230.31"
       id="linearGradient4702" /><linearGradient
       y2="105.37"
       x2="439.26001"
       gradientTransform="matrix(0.99245,-0.12267,0.12267,0.99245,-198.54,17.522)"
       y1="11.188"
       gradientUnits="userSpaceOnUse"
       xlink:href="#linearGradient2917"
       x1="251.59"
       id="linearGradient4705" /><linearGradient
       y2="454.35001"
       x2="496.91"
       gradientTransform="translate(-177.79,-46.467)"
       y1="476.57999"
       gradientUnits="userSpaceOnUse"
       x1="228.14"
       id="linearGradient4708"><stop
         offset="0"
         stop-color="#a00000"
         id="stop4589" /><stop
         offset=".78167"
         stop-color="#ff4c2a"
         id="stop4591" /><stop
         offset="1"
         stop-color="#f95"
         id="stop4593" /></linearGradient><linearGradient
       y2="454.35001"
       x2="496.91"
       gradientTransform="translate(-177.79,-46.467)"
       y1="476.57999"
       gradientUnits="userSpaceOnUse"
       x1="228.14"
       id="linearGradient4717"><stop
         offset="0"
         stop-color="#a00000"
         id="stop2901" /><stop
         offset=".5"
         stop-color="#ff4c2a"
         id="stop4583" /><stop
         offset="1"
         stop-color="#f95"
         id="stop2903" /></linearGradient><linearGradient
       inkscape:collect="always"
       xlink:href="#linearGradient2917"
       id="linearGradient4183"
       gradientUnits="userSpaceOnUse"
       gradientTransform="matrix(0.99245,-0.12267,0.12267,0.99245,-198.54,17.522)"
       x1="251.59"
       y1="11.188"
       x2="439.26001"
       y2="105.37" /><linearGradient
       inkscape:collect="always"
       xlink:href="#linearGradient2917"
       id="linearGradient4185"
       gradientUnits="userSpaceOnUse"
       gradientTransform="matrix(1.0073,0,0,0.56967,-180.42,17.027)"
       x1="230.31"
       y1="44.23"
       x2="428.12"
       y2="114.68" /><linearGradient
       inkscape:collect="always"
       xlink:href="#linearGradient2917"
       id="linearGradient4187"
       gradientUnits="userSpaceOnUse"
       gradientTransform="matrix(1.0073,0,0,0.56967,112.52,17.027)"
       x1="230.31"
       y1="44.23"
       x2="428.12"
       y2="114.68" /></defs><sodipodi:namedview
     pagecolor="#ffffff"
     bordercolor="#666666"
     borderopacity="1"
     objecttolerance="10"
     gridtolerance="10"
     guidetolerance="10"
     inkscape:pageopacity="0"
     inkscape:pageshadow="2"
     inkscape:window-width="2504"
     inkscape:window-height="1396"
     id="namedview7"
     showgrid="false"
     fit-margin-top="0"
     fit-margin-left="0"
     fit-margin-right="0"
     fit-margin-bottom="0"
     inkscape:zoom="2"
     inkscape:cx="-119.52766"
     inkscape:cy="220.17416"
     inkscape:window-x="56"
     inkscape:window-y="22"
     inkscape:window-maximized="0"
     inkscape:current-layer="g4151"
     inkscape:snap-nodes="false" /><metadata
     id="metadata5"><rdf:RDF><cc:Work><dc:format>image/svg+xml</dc:format><dc:type
           rdf:resource="http://purl.org/dc/dcmitype/StillImage" /><cc:license
           rdf:resource="http://creativecommons.org/publicdomain/zero/1.0/" /><dc:publisher><cc:Agent
             rdf:about="http://openclipart.org/"><dc:title>Openclipart</dc:title></cc:Agent></dc:publisher><dc:title></dc:title></cc:Work><cc:License
         rdf:about="http://creativecommons.org/publicdomain/zero/1.0/"><cc:permits
           rdf:resource="http://creativecommons.org/ns#Reproduction" /><cc:permits
           rdf:resource="http://creativecommons.org/ns#Distribution" /><cc:permits
           rdf:resource="http://creativecommons.org/ns#DerivativeWorks" /></cc:License></rdf:RDF></metadata><g
     id="g4151"
     transform="matrix(0.98327197,0,0,1.5699675,17.571711,-13.037206)"><rect
       y="12.663981"
       x="-12.816265"
       height="66.815598"
       width="115.95353"
       id="rect4137"
       style="color:#000000;clip-rule:nonzero;display:inline;overflow:visible;visibility:visible;opacity:1;isolation:auto;mix-blend-mode:normal;color-interpolation:sRGB;color-interpolation-filters:linearRGB;solid-color:#000000;solid-opacity:1;fill:#ffffff;fill-opacity:1;fill-rule:nonzero;stroke:#000000;stroke-width:8;stroke-linecap:butt;stroke-linejoin:miter;stroke-miterlimit:4;stroke-dasharray:none;stroke-dashoffset:0;stroke-opacity:1;color-rendering:auto;image-rendering:auto;shape-rendering:auto;text-rendering:auto;enable-background:accumulate" /><rect
       style="color:#000000;clip-rule:nonzero;display:inline;overflow:visible;visibility:visible;opacity:1;isolation:auto;mix-blend-mode:normal;color-interpolation:sRGB;color-interpolation-filters:linearRGB;solid-color:#000000;solid-opacity:1;fill:#000000;fill-opacity:1;fill-rule:nonzero;stroke:none;stroke-width:6.90457582;stroke-linecap:butt;stroke-linejoin:miter;stroke-miterlimit:4;stroke-dasharray:none;stroke-dashoffset:0;stroke-opacity:1;color-rendering:auto;image-rendering:auto;shape-rendering:auto;text-rendering:auto;enable-background:accumulate"
       id="rect4139"
       width="17.896412"
       height="22.148317"
       x="36.212296"
       y="81.607796" /><path
       sodipodi:nodetypes="cc"
       inkscape:connector-curvature="0"
       id="path4141"
       d="M 11.474059,104.66102 H 78.84694"
       style="color:#000000;clip-rule:nonzero;display:inline;overflow:visible;visibility:visible;opacity:1;isolation:auto;mix-blend-mode:normal;color-interpolation:sRGB;color-interpolation-filters:linearRGB;solid-color:#000000;solid-opacity:1;fill:none;fill-opacity:1;fill-rule:nonzero;stroke:#000000;stroke-width:8;stroke-linecap:butt;stroke-linejoin:miter;stroke-miterlimit:4;stroke-dasharray:none;stroke-dashoffset:0;stroke-opacity:1;color-rendering:auto;image-rendering:auto;shape-rendering:auto;text-rendering:auto;enable-background:accumulate" /><text
       xml:space="preserve"
       style="font-style:normal;font-variant:normal;font-weight:normal;font-stretch:normal;font-size:16.08843994px;line-height:1.25;font-family:sans-serif;-inkscape-font-specification:'sans-serif, Normal';font-variant-ligatures:normal;font-variant-caps:normal;font-variant-numeric:normal;font-feature-settings:normal;text-align:center;letter-spacing:0px;word-spacing:0px;writing-mode:lr-tb;text-anchor:middle;fill:#000000;fill-opacity:1;stroke:none;stroke-width:0.40220803"
       x="60.668114"
       y="46.839161"
       id="text4191"
       transform="scale(1.0392943,0.96219136)"><tspan
         sodipodi:role="line"
         id="tspan4201"
         x="60.668114"
         y="46.839161"
         style="font-style:normal;font-variant:normal;font-weight:normal;font-stretch:normal;font-size:16.08843994px;font-family:sans-serif;-inkscape-font-specification:'sans-serif, Normal';font-variant-ligatures:normal;font-variant-caps:normal;font-variant-numeric:normal;font-feature-settings:normal;text-align:center;writing-mode:lr-tb;text-anchor:middle;stroke-width:0.40220803">Theo's</tspan><tspan
         sodipodi:role="line"
         id="tspan4203"
         x="60.668114"
         y="66.949715"
         style="font-style:normal;font-variant:normal;font-weight:normal;font-stretch:normal;font-size:16.08843994px;font-family:sans-serif;-inkscape-font-specification:'sans-serif, Normal';font-variant-ligatures:normal;font-variant-caps:normal;font-variant-numeric:normal;font-feature-settings:normal;text-align:center;writing-mode:lr-tb;text-anchor:middle;stroke-width:0.40220803" /></text>
<text
       xml:space="preserve"
       style="font-style:normal;font-variant:normal;font-weight:normal;font-stretch:normal;font-size:16.08843803px;line-height:1.25;font-family:sans-serif;-inkscape-font-specification:'sans-serif, Normal';font-variant-ligatures:normal;font-variant-caps:normal;font-variant-numeric:normal;font-feature-settings:normal;text-align:center;letter-spacing:0px;word-spacing:0px;writing-mode:lr-tb;text-anchor:middle;fill:#000000;fill-opacity:1;stroke:none;stroke-width:0.40220803"
       x="61.249767"
       y="60.886871"
       id="text4191-3"
       transform="scale(1.0392943,0.96219137)"><tspan
         sodipodi:role="line"
         id="tspan4203-6"
         x="61.249767"
         y="60.886871"
         style="font-style:normal;font-variant:normal;font-weight:normal;font-stretch:normal;font-size:16.08843803px;font-family:sans-serif;-inkscape-font-specification:'sans-serif, Normal';font-variant-ligatures:normal;font-variant-caps:normal;font-variant-numeric:normal;font-feature-settings:normal;text-align:center;writing-mode:lr-tb;text-anchor:middle;stroke-width:0.40220803">Recipes</tspan></text>
</g><g
     transform="matrix(0.06532013,0,0,0.08995024,9.7748461,16.590694)"
     id="layer1"><path
       d="m 159.84,79.428 c 38.027,-4.7898 77.292,-13.194 110.92,30.305 1.2129,1.5689 11.564,12.539 14.308,20.369 43.405,123.87 11.795,262.36 24.286,393.02 7.8667,82.292 13.93,168.48 4.3647,205.64 -9.5656,37.156 -31.981,122.68 -38.729,148.57 -6.7488,25.89 -47.064,30.522 -47.064,-84.207 0,-114.729 -247.76,-454.75 -157.14,-663.02 13.627,-31.32 55.172,-46.405 89.06,-50.674 z"
       id="rect2890"
       inkscape:connector-curvature="0"
       style="fill:url(#linearGradient4717);stroke:#002b00" /><path
       d="m 249.83,97.086 c -2.744,0.29824 -4.656,17.595 -5.1058,32.796 -8.0469,-1.9771 -19.935,5.707 -23.718,16.542 -8.1492,-3.1007 -30.113,-6.2614 -35.602,4.5995 -6.2918,-13.292 -20.977,-17.582 -31.377,-5.4756 2.5905,-16.617 -27.013,-13.246 -28.807,-14.866 4.195,-11.863 -6.6506,-31.094 -17.697,-26.336 6.5309,-18.966 34.938,-23.328 68.712,-27.509 33.721,-4.1749 67.414,-0.23704 73.596,20.249 z"
       id="path2893"
       inkscape:connector-curvature="0"
       style="fill:url(#linearGradient4183);stroke:#002b00" /><path
       d="m 168.07,100.92 c 22.599,-26.417 2.0144,-23.894 0,-34.527 10.37,-4.4445 19.447,-2.3127 28.49,0 5.0188,10.888 8.5009,19.461 0,34.527"
       id="rect2896"
       inkscape:connector-curvature="0"
       style="fill:url(#linearGradient4185);stroke:#002b00" /><path
       d="m 159.84,79.428 c 38.027,-4.7898 77.292,-13.194 110.92,30.305 1.2129,1.5689 11.564,12.539 14.308,20.369 43.405,123.87 11.795,262.36 24.286,393.02 7.8667,82.292 13.93,168.48 4.3647,205.64 -9.5656,37.156 -31.981,122.68 -38.729,148.57 -6.7488,25.89 -47.064,30.522 -47.064,-84.207 0,-114.729 -247.76,-454.75 -157.14,-663.02 13.627,-31.32 55.172,-46.405 89.06,-50.674 z"
       id="path3872"
       inkscape:connector-curvature="0"
       style="fill:url(#linearGradient4708);stroke:#002b00;stroke-width:2" /><path
       d="m 249.83,97.086 c -7.4506,35.765 -3.4055,24.902 -20.253,38.624 -23.958,-18.552 -67.247,0.59542 -104.36,-5.0273 4.195,-11.863 -6.6506,-31.094 -17.697,-26.336 6.5309,-18.966 34.938,-23.328 68.712,-27.509 33.721,-4.1749 67.414,-0.23704 73.596,20.249 z"
       id="path3874"
       inkscape:connector-curvature="0"
       style="fill:url(#linearGradient4705);stroke:#000000;stroke-width:2" /><path
       d="m 168.07,100.92 c 22.599,-26.417 2.0144,-23.894 0,-34.527 10.37,-4.4445 19.447,-2.3127 28.49,0 5.0188,10.888 8.5009,19.461 0,34.527"
       id="path3876"
       inkscape:connector-curvature="0"
       style="fill:url(#linearGradient4702);stroke:#002b00;stroke-width:2" /><path
       d="m 94.372,248.99 c 8.0844,-4.8144 15.957,-11.672 29.663,10.109 0.49436,0.78562 4.381,6.1701 6.0876,10.283 26.995,65.057 38.751,142.43 59.571,212.98 13.113,44.434 26.346,91.097 29.251,111.92 2.9051,20.822 9.5005,68.773 11.505,83.286 2.0048,14.513 -6.6271,19.374 -22.387,-43.209 -15.76,-62.59 -119.42,-233.72 -127.2,-352.58 -1.1696,-17.873 6.3092,-28.508 13.514,-32.798 z"
       id="path4575"
       inkscape:connector-curvature="0"
       style="fill:url(#linearGradient4699)" /><path
       d="m 461.01,100.92 c 22.599,-26.417 2.0144,-23.894 0,-34.527 10.37,-4.4445 19.447,-2.3127 28.49,0 5.0188,10.888 8.5009,19.461 0,34.527"
       id="path4631"
       inkscape:connector-curvature="0"
       style="fill:url(#linearGradient4187);stroke:#002b00" /><path
       d="m 451.78,78.418 c 38.027,-4.7898 77.292,-13.194 110.92,30.305 1.2129,1.5689 11.564,12.539 14.308,20.369 43.405,123.87 11.795,262.36 24.286,393.02 7.8667,82.292 13.93,168.48 4.3647,205.64 -9.5656,37.156 -31.981,122.68 -38.729,148.57 -6.7488,25.89 -47.064,30.522 -47.064,-84.207 0,-114.729 -247.76,-454.75 -157.14,-663.02 13.627,-31.32 55.172,-46.405 89.06,-50.674 z"
       id="path4633"
       inkscape:connector-curvature="0"
       style="fill:url(#linearGradient4682);stroke:#002b00;stroke-width:2" /><path
       d="m 542.77,97.086 c -7.4506,35.765 -3.4055,24.902 -20.253,38.624 -23.958,-18.552 -67.247,0.59542 -104.36,-5.0273 4.195,-11.863 -6.6506,-31.094 -17.697,-26.336 6.5309,-18.966 34.938,-23.328 68.712,-27.509 33.721,-4.1749 67.414,-0.23704 73.596,20.249 z"
       id="path4635"
       inkscape:connector-curvature="0"
       style="fill:url(#linearGradient4662);stroke:#000000;stroke-width:2" /><path
       d="m 461.01,100.92 c 22.599,-26.417 2.0144,-23.894 0,-34.527 10.37,-4.4445 19.447,-2.3127 28.49,0 5.0188,10.888 8.5009,19.461 0,34.527"
       id="path4637"
       inkscape:connector-curvature="0"
       style="fill:url(#linearGradient4659);stroke:#002b00;stroke-width:2" /><path
       d="m 387.32,248.99 c 8.0844,-4.8144 15.957,-11.672 29.663,10.109 0.49436,0.78562 4.381,6.1701 6.0876,10.283 26.995,65.057 38.751,142.43 59.571,212.98 13.113,44.434 26.346,91.097 29.251,111.92 2.9051,20.822 9.5005,68.773 11.505,83.286 2.0048,14.513 -6.6271,19.374 -22.387,-43.209 -15.7599,-62.583 -119.43,-233.72 -127.2,-352.57 -1.1696,-17.873 6.3092,-28.508 13.514,-32.798 z"
       id="path4639"
       inkscape:connector-curvature="0"
       style="fill:url(#linearGradient4656)" /></g></svg>